<?xml version="1.0" encoding="utf-8"?>
<!-- Generator: Adobe Illustrator 19.0.0, SVG Export Plug-In . SVG Version: 6.00 Build 0)  -->
<svg version="1.1" id="Слой_1" xmlns="http://www.w3.org/2000/svg" xmlns:xlink="http://www.w3.org/1999/xlink" x="0px" y="0px"
	 viewBox="0 0 229 101.5" style="enable-background:new 0 0 229 101.5;" xml:space="preserve">
<style type="text/css">
	.st0{clip-path:url(#SVGID_2_);fill:url(#SVGID_3_);}
	.st1{clip-path:url(#SVGID_5_);fill:#FFFFFF;}
</style>
<g>
	<defs>
		<path id="SVGID_1_" d="M75.9,2.1c7.5,0,15-0.2,22.4-0.2c4.8,0,9.6,0.1,14.4,0.3c10.9,0.6,18.1,9.2,18.6,19.8
			c0.7,16-8.4,24.5-24.6,24.8c-2.8,0.1-5.6,0.1-8.3,0.1c-4.5,0-8.9-0.1-13.8-0.1c0,6.5,0,49.7,0,49.7h-8.6V47c0,0-30.6,0-30.6,0
			c-1.1-0.1-2.2-0.2-3.1-0.2c-8.2,0-9.6,4.2-7.4,6.6c2.2,2.3-0.4,4.9-2.5,4.9c-0.1,0-0.3,0-0.4,0c-4.7-0.8-8-5.7-4.4-11
			c2.3-3.5,6.3-4.4,10.2-4.4c1.9,0,3.8,0.2,5.4,0.5v-0.1c0,0-3-0.7-3.6-0.9c-4.1-1.4-7.7-4.8-10.4-8.1c-2.2-2.7-2.9-3.8-3.5-4.5
			c-2.1-2.8-4.7-4.8-8.2-4.8c-0.4,0-0.9,0-1.3,0.1c-2.9,0.4-5.2,2.7-5.1,5.2c0,1,0.3,1.9,1.4,1.9c0.2,0,0.3,0,0.5-0.1
			c0.3-0.1,0.6-0.1,0.9-0.1c0.4,0,0.7,0.1,1,0.6c0.4,0.9,0.2,1.7-0.1,2.5c-0.8,2.1-2.9,3.2-5.2,3.2c-2.4,0-4.9-1.2-6.3-3.6
			c-2.8-5-0.5-11.3,4.9-13.4c1.9-0.7,3.6-1.1,5.3-1.1c3.6,0,6.9,1.6,10,4.3c1.1,1,2.1,2.2,3.4,3.5c-0.3-3.7-0.8-7.2,1.1-10.3
			c0.5,0.2,0.8,0.5,1,1c-0.6-2.1,2-5.5,4.2-5.5c0.1,0,0.2,0,0.3,0c0.3,0,0.5,0.2,0.8,0.2c0.2,0,0.4-0.1,0.7-0.7
			c0.3-0.7,3-1.4,4.3-1.4c0.1,0,0.2,0,0.3,0c1.8,0,2.6,0.6,3,2.3c0.4,1.7-0.8,4.1-2.6,4.9c-0.9,0.4-0.8,1,0,1.6
			c2.1,1.7,1.9,3.3-0.8,4.2C37,25,35.5,26.9,35,29c-0.2,1-0.6,2.8,0,4.7c0.3,1.1,0.5,1.5,1.3,2.7c2,3.1,9.1,3.4,9.1,3.4
			s50.5,0.1,60.5,0.1c0.4,0,0.7,0,1,0c11.8,0,17.5-6.4,16.4-18.1c-0.6-6.5-4.1-11.4-10.5-12.1C107.5,9,98.6,8.9,92,8.9
			c-4.6,0-8,0.1-8.4,0.1v22.4h-7.8V2.1z M98.2,0c-3.7,0-7.5,0-11.1,0.1c-3.7,0-7.5,0.1-11.3,0.1c-1.1,0-2,0.9-2,2v29.2
			c0,1.1,0.9,2,2,2h7.8c1.1,0,2-0.9,2-2V10.9c1.5,0,3.7,0,6.4,0c5.3,0,15,0.1,20.5,0.7c6.8,0.7,8.4,6.8,8.7,10.3
			c0.5,5.3-0.5,9.4-2.9,12c-2.4,2.6-6.3,4-11.5,4l-1,0c-9.8,0-58.6-0.1-60.5-0.1c-2.5-0.1-6.5-1-7.5-2.5c-0.7-1-0.8-1.3-1-2.2
			c-0.4-1.4-0.1-2.8,0.1-3.7c0.3-1.5,1.4-2.8,2.7-3.2c2.5-0.8,3.3-2.2,3.5-3.3c0.2-0.9,0-2.1-1.2-3.4c1.9-1.5,2.9-4.2,2.4-6.3
			c-0.7-2.5-2.2-3.7-4.8-3.8c-0.1,0-0.3,0-0.4,0c0,0-4.1,0.1-5.7,1.9c-0.1,0-0.3,0-0.4,0c-1.7,0-3.4,1-4.7,2.8
			c-0.4,0.6-0.8,1.2-1,1.8c-0.5,0.1-0.9,0.4-1.1,0.9c-1.2,2-1.6,4.1-1.6,6.2c-3.5-3.1-7.3-4.7-11.1-4.7c-2,0-4,0.4-6.1,1.2
			c-3.2,1.3-5.6,3.8-6.7,6.9c-1.1,3-0.8,6.4,0.8,9.2c1.6,2.8,4.6,4.6,8,4.6c3.3,0,5.9-1.7,7-4.4c0.4-1.1,0.8-2.5,0.1-4.1
			C16,30.6,15,30,13.8,30c-0.3,0-0.6,0-0.8,0.1c0-1.5,1.5-2.9,3.4-3.2c0.4,0,0.7-0.1,1.1-0.1c2.5,0,4.5,1.2,6.6,4
			c0.1,0.2,0.3,0.3,0.4,0.6c0.5,0.7,1.4,1.9,3.1,4c2,2.4,4,4.3,6,5.8c-3.4,0.7-6,2.3-7.7,4.9c-2,2.9-2.4,6.1-1.2,8.9
			c1.2,2.7,3.7,4.7,6.9,5.2c0.2,0,0.5,0.1,0.7,0.1c2,0,4.1-1.3,4.9-3.2c0.7-1.7,0.4-3.5-1-5c-0.2-0.3-0.6-0.8-0.4-1.3
			c0.4-0.9,2.3-2,6.3-2c0.9,0,1.9,0.1,2.9,0.2c0.1,0,0.1,0,28.9,0v47.8c0,1.1,0.9,2,2,2h8.6c1.1,0,2-0.9,2-2c0,0,0-37.2,0-47.8
			c1.8,0,3.6,0,5.3,0c2.2,0,4.4,0,6.6,0c3.1,0,5.7,0,8.3-0.1c9-0.2,15.9-2.8,20.5-7.7c4.3-4.6,6.3-11.1,6-19.2
			C132.6,9.9,124.2,1,112.7,0.3C108.4,0.1,103.8,0,98.2,0z"/>
	</defs>
	<clipPath id="SVGID_2_">
		<use xlink:href="#SVGID_1_"  style="overflow:visible;"/>
	</clipPath>
	
		<linearGradient id="SVGID_3_" gradientUnits="userSpaceOnUse" x1="0" y1="101.523" x2="1" y2="101.523" gradientTransform="matrix(133.1537 0 0 -133.1537 0 13567.5107)">
		<stop  offset="0" style="stop-color:#FFFFFF"/>
		<stop  offset="0.2182" style="stop-color:#F9D79E"/>
		<stop  offset="0.3758" style="stop-color:#F7B354"/>
		<stop  offset="0.4996" style="stop-color:#401E13"/>
		<stop  offset="0.5356" style="stop-color:#664129"/>
		<stop  offset="0.5839" style="stop-color:#926942"/>
		<stop  offset="0.6327" style="stop-color:#B68B56"/>
		<stop  offset="0.6814" style="stop-color:#D3A566"/>
		<stop  offset="0.73" style="stop-color:#E7B772"/>
		<stop  offset="0.7784" style="stop-color:#F3C279"/>
		<stop  offset="0.8265" style="stop-color:#F7C67B"/>
		<stop  offset="1" style="stop-color:#B17121"/>
	</linearGradient>
	<rect x="-0.4" y="0" class="st0" width="133.9" height="98.7"/>
</g>
<g>
	<defs>
		<rect id="SVGID_4_" y="0" width="229" height="101.5"/>
	</defs>
	<clipPath id="SVGID_5_">
		<use xlink:href="#SVGID_4_"  style="overflow:visible;"/>
	</clipPath>
	<polygon class="st1" points="115.8,71.8 118.3,71.8 118.3,83.9 115.8,83.9 115.8,75.9 110.9,83.9 108.4,83.9 108.4,71.8 
		110.9,71.8 110.9,79.9 	"/>
	<path class="st1" d="M121.2,83.9V71.8h4.2c1.5,0,2.6,0.3,3.3,0.8c0.8,0.6,1.1,1.4,1.1,2.5c0,0.6-0.2,1.1-0.5,1.6
		c-0.3,0.5-0.7,0.8-1.3,1c0.6,0.2,1.1,0.5,1.5,0.9c0.4,0.5,0.5,1,0.5,1.7c0,1.2-0.4,2-1.1,2.6c-0.7,0.6-1.8,0.9-3.2,0.9H121.2z
		 M123.7,76.9h1.8c1.3,0,1.9-0.5,1.9-1.5c0-0.5-0.2-0.9-0.5-1.2c-0.3-0.2-0.8-0.4-1.5-0.4h-1.7V76.9z M123.7,78.6v3.3h2.1
		c0.6,0,1-0.1,1.4-0.4c0.3-0.3,0.5-0.7,0.5-1.2c0-1.1-0.6-1.7-1.7-1.7H123.7z"/>
	<polygon class="st1" points="139.9,71.8 142.4,71.8 142.4,83.9 139.9,83.9 139.9,75.9 135.1,83.9 132.6,83.9 132.6,71.8 
		135.1,71.8 135.1,79.9 	"/>
	<path class="st1" d="M155.4,71.8v12.1h-2.5V73.8h-3.2l-0.2,4.3c-0.1,1.4-0.3,2.6-0.5,3.4c-0.3,0.8-0.7,1.4-1.2,1.8
		c-0.5,0.4-1.3,0.6-2.2,0.6h-0.6v-2l0.4,0c0.6-0.1,1.1-0.4,1.3-1.1c0.3-0.6,0.4-1.8,0.5-3.4l0.2-5.5H155.4z"/>
	<polygon class="st1" points="165.7,71.8 168.2,71.8 168.2,83.9 165.7,83.9 165.7,75.9 160.9,83.9 158.4,83.9 158.4,71.8 
		160.9,71.8 160.9,79.9 	"/>
	<polygon class="st1" points="215.4,71.8 217.9,71.8 217.9,83.9 215.4,83.9 215.4,75.9 210.5,83.9 208,83.9 208,71.8 210.5,71.8 
		210.5,79.9 	"/>
	<path class="st1" d="M226.5,83.9v-4.4h-2.2l-2,4.4h-2.7l2.6-5.2c-1.2-0.7-1.9-1.8-1.9-3.2c0-1.2,0.4-2.1,1.2-2.8
		c0.8-0.6,1.9-1,3.2-1h4.3v12.1H226.5z M222.8,75.7c0,0.7,0.2,1.2,0.5,1.5c0.3,0.3,0.8,0.5,1.5,0.5h1.7v-3.8h-1.7
		C223.4,73.8,222.8,74.5,222.8,75.7"/>
	<path class="st1" d="M97.4,64.1v4.3h-2.5V56.3h4.7c0.9,0,1.7,0.2,2.4,0.5c0.7,0.3,1.2,0.8,1.6,1.4s0.6,1.3,0.6,2.1
		c0,1.2-0.4,2.1-1.2,2.8c-0.8,0.7-1.9,1-3.4,1H97.4z M97.4,62.1h2.2c0.7,0,1.2-0.2,1.5-0.5c0.3-0.3,0.5-0.8,0.5-1.3
		c0-0.6-0.2-1.1-0.5-1.4c-0.3-0.4-0.8-0.6-1.4-0.6h-2.3V62.1z"/>
	<path class="st1" d="M110.4,62l2.2-5.7h2.7l-4.2,10l-0.3,0.7c-0.6,1.1-1.6,1.6-2.9,1.6l-0.9,0l0-2c0.1,0,0.3,0,0.6,0
		c0.3,0,0.6-0.1,0.8-0.2c0.2-0.1,0.4-0.3,0.5-0.7l0.3-0.8l-4.2-8.6h2.7L110.4,62z"/>
	<polygon class="st1" points="144.5,63.5 142.8,63.5 142.8,68.4 140.3,68.4 140.3,56.3 142.8,56.3 142.8,61.1 144.2,61.1 
		146.9,56.3 150,56.3 146.5,62 150.4,68.4 147.4,68.4 	"/>
	<path class="st1" d="M170.6,68.4V64h-2l-2.2,4.4h-2.7l2.6-5.2c-1.2-0.7-1.9-1.8-1.9-3.2c0-1.2,0.4-2.1,1.2-2.8c0.8-0.6,1.9-1,3.2-1
		h4.3v12.1H170.6z M166.9,60.2c0,0.7,0.2,1.2,0.5,1.5c0.3,0.3,0.8,0.5,1.5,0.5h1.7v-3.8h-1.7C167.5,58.3,166.9,59,166.9,60.2"/>
	<path class="st1" d="M99.1,99c0-0.5,0-4.7,0-6.4L97.6,99H97l-1.5-6.4V99h-0.6c0-0.5,0.1-7.6,0.1-7.6h0.8l1.5,6.5l1.5-6.5h0.8
		c0,0.8,0.1,7.6,0.1,7.6H99.1z"/>
	<path class="st1" d="M110.1,91.4v3.3h0.8c0.7,0,0.9-0.5,0.9-1.4v-0.4c0-0.9,0.2-1.5,1.1-1.5v0.6c-0.4,0-0.5,0.5-0.5,1.2v0.3
		c0,0.7-0.1,1.3-0.7,1.5c0.7,0.2,0.8,0.8,0.8,1.5v0.7c0,0.6,0.1,1.2,0.5,1.2V99c-0.9,0-1.1-0.7-1.1-1.5v-0.8c0-0.8-0.2-1.4-0.9-1.4
		h-0.9V99h-0.6v-3.7h-0.9c-0.7,0-0.9,0.5-0.9,1.4v0.8c0,0.9-0.2,1.5-1.1,1.5v-0.6c0.4,0,0.5-0.5,0.5-1.2v-0.7c0-0.8,0.1-1.3,0.8-1.5
		c-0.6-0.2-0.7-0.8-0.7-1.5v-0.3c0-0.6-0.1-1.2-0.5-1.2v-0.6c0.9,0,1.1,0.7,1.1,1.5v0.4c0,0.8,0.2,1.4,0.9,1.4h0.8v-3.3H110.1z"/>
	<polygon class="st1" points="125.1,99 125.1,91.4 125.7,91.4 125.7,94.7 128,94.7 128,91.4 128.7,91.4 128.7,99 128,99 128,95.3 
		125.7,95.3 125.7,99 	"/>
	<path class="st1" d="M134.2,99c-0.6,0-0.8-0.2-1-0.6c-0.2,0.2-0.7,0.6-1.5,0.6c-1.1,0-1.5-0.8-1.5-1.8c0-2.2,2-2.3,3-3.1v-1
		c0-0.6-0.2-1.1-0.9-1.1c-0.8,0-1,0.4-1,1.4v0.4h-0.7v-0.4c0-1.5,0.6-2,1.7-2c1.1,0,1.6,0.6,1.6,1.5v5.3c0,0.3,0.2,0.3,0.5,0.3V99
		H134.2z M133.2,94.8c-0.4,0.3-0.9,0.5-1.3,0.7c-0.7,0.4-1.1,0.9-1.1,1.7c0,0.2,0,1.2,1,1.2c0.6,0,1-0.3,1.3-0.7V94.8z"/>
	<path class="st1" d="M136.4,91.4v0.7c0.4-0.6,1-0.7,1.4-0.7c1.2,0,1.4,1.1,1.4,2v3.9c0,1-0.6,1.8-1.5,1.8c-0.6,0-1.1-0.3-1.3-0.7
		v3.1h-0.7V91.4H136.4z M138.6,93.1c0-0.6-0.3-1.2-1-1.2c-0.7,0-1.1,0.6-1.2,1v4.7c0.1,0.5,0.6,0.9,1.2,0.9c1,0,1-0.8,1-1.5V93.1z"
		/>
	<path class="st1" d="M144.5,97c0,1.5-0.8,2-1.8,2c-1.1,0-1.8-0.6-1.8-1.6v-4.2c0-0.9,0.5-1.8,1.8-1.8c1.2,0,1.7,0.7,1.7,1.8V97z
		 M143.9,93.3c0-0.5-0.1-1.3-1.1-1.3c-1,0-1.2,0.7-1.2,1.5v3.8c0,0.8,0.4,1.2,1.1,1.2c1,0,1.2-0.8,1.2-1.3V93.3z"/>
	<polygon class="st1" points="151.8,99 151.8,91.4 152.5,91.4 152.5,94.7 154.7,94.7 154.7,91.4 155.4,91.4 155.4,99 154.7,99 
		154.7,95.3 152.5,95.3 152.5,99 	"/>
	<path class="st1" d="M157.4,91.4h0.7v3.1h0.6c1.3,0,2,0.4,2,1.8v0.9c0,1.3-0.9,1.8-2,1.8h-1.2V91.4z M158,98.4h0.7
		c1,0,1.3-0.5,1.3-1.3v-0.8c0-0.8-0.3-1.3-1.3-1.3H158V98.4z M161.4,91.4h0.6V99h-0.6V91.4z"/>
	<path class="st1" d="M183.1,97c0,1.5-0.8,2-1.8,2c-1.1,0-1.8-0.6-1.8-1.6v-4.2c0-0.9,0.5-1.8,1.8-1.8c1.2,0,1.7,0.7,1.7,1.8V97z
		 M182.4,93.3c0-0.5-0.1-1.3-1.1-1.3c-1,0-1.2,0.7-1.2,1.5v3.8c0,0.8,0.4,1.2,1.1,1.2c1,0,1.2-0.8,1.2-1.3V93.3z"/>
	<polygon class="st1" points="186.2,92 186.2,99 185.6,99 185.6,92 184,92 184,91.4 187.8,91.4 187.8,92 	"/>
	<path class="st1" d="M192.3,97c0,1.5-0.8,2-1.8,2c-1.1,0-1.8-0.6-1.8-1.6v-4.2c0-0.9,0.5-1.8,1.8-1.8c1.2,0,1.7,0.7,1.7,1.8V97z
		 M191.7,93.3c0-0.5-0.1-1.3-1.1-1.3c-1,0-1.2,0.7-1.2,1.5v3.8c0,0.8,0.4,1.2,1.1,1.2c1,0,1.2-0.8,1.2-1.3V93.3z"/>
	<path class="st1" d="M194.7,91.4v3.3h0.8c0.7,0,0.9-0.5,0.9-1.4v-0.4c0-0.9,0.2-1.5,1.1-1.5v0.6c-0.4,0-0.5,0.5-0.5,1.2v0.3
		c0,0.6-0.1,1.1-0.5,1.4c-0.1,0-0.1,0.1-0.2,0.1c0.1,0,0.2,0,0.2,0.1c0.5,0.2,0.6,0.8,0.6,1.4v0.7c0,0.6,0.1,1.2,0.5,1.2V99
		c-0.9,0-1.1-0.7-1.1-1.5v-0.9c0-0.8-0.2-1.4-0.9-1.4h-0.9V99h-0.6v-7.6H194.7z"/>
	<path class="st1" d="M202.7,97c0,1.5-0.8,2-1.8,2c-1.1,0-1.8-0.6-1.8-1.6v-4.2c0-0.9,0.5-1.8,1.8-1.8c1.2,0,1.7,0.7,1.7,1.8V97z
		 M202.1,93.3c0-0.5-0.1-1.3-1.1-1.3c-1,0-1.2,0.7-1.2,1.5v3.8c0,0.8,0.4,1.2,1.1,1.2c1,0,1.2-0.8,1.2-1.3V93.3z"/>
	<polygon class="st1" points="204.5,99 204.5,91.4 205.1,91.4 205.1,94.7 207.4,94.7 207.4,91.4 208,91.4 208,99 207.4,99 
		207.4,95.3 205.1,95.3 205.1,99 	"/>
	<path class="st1" d="M220.8,91.4v0.7c0.4-0.6,1-0.7,1.4-0.7c1.2,0,1.4,1.1,1.4,2v3.9c0,1-0.6,1.8-1.5,1.8c-0.6,0-1.1-0.3-1.3-0.7
		v3.1h-0.7V91.4H220.8z M223,93.1c0-0.6-0.3-1.2-1-1.2c-0.7,0-1.1,0.6-1.2,1v4.7c0.1,0.5,0.6,0.9,1.2,0.9c1,0,1-0.8,1-1.5V93.1z"/>
	<path class="st1" d="M210.7,91.4v3.3h0.8c0.7,0,0.9-0.5,0.9-1.4v-0.4c0-0.9,0.2-1.5,1.1-1.5v0.6c-0.4,0-0.5,0.5-0.5,1.2v0.3
		c0,0.6-0.1,1.1-0.5,1.4c-0.1,0-0.1,0.1-0.2,0.1c0.1,0,0.2,0,0.2,0.1c0.5,0.2,0.6,0.8,0.6,1.4v0.7c0,0.6,0.1,1.2,0.5,1.2V99
		c-0.9,0-1.1-0.7-1.1-1.5v-0.9c0-0.8-0.2-1.4-0.9-1.4h-0.9V99h-0.6v-7.6H210.7z"/>
	<path class="st1" d="M165.9,90.4c0.7,0,1.4-0.4,1.5-1.3h-0.6c-0.1,0.4-0.3,0.8-1,0.8c-0.5,0-0.8-0.3-0.9-0.8h-0.6
		C164.4,89.9,165,90.4,165.9,90.4"/>
	<path class="st1" d="M176.1,91.4h-0.5v-2.3H175v2.3h-0.5c-1.3,0-1.8,0.9-1.8,1.8v4.2c0,1,0.7,1.6,1.8,1.6h0.6v2.4h0.7v-2.4h0.6
		c1.1,0,1.8-0.6,1.8-1.6v-4.2C177.9,92.3,177.5,91.4,176.1,91.4 M175,98.5h-0.6c-0.7,0-1.1-0.4-1.1-1.2v-3.8c0-0.7,0.2-1.5,1.2-1.5
		h0.5V98.5z M177.3,97.2c0,0.8-0.4,1.2-1.1,1.2h-0.6V92h0.5c1,0,1.2,0.7,1.2,1.5V97.2z"/>
	<polygon class="st1" points="167,91.4 164.7,97.6 164.7,91.4 164.1,91.4 164.1,99 164.7,99 167,93 167,99 167.6,99 167.6,91.4 	"/>
	<path class="st1" d="M123.1,91.4l-1.3,6.3l-1.3-6.3h-0.7l1.7,7.6l-0.2,0.9c-0.2,0.9-0.8,1.1-1.2,1.1c-0.1,0-0.2,0-0.2,0v0.6
		c0.5,0,1.1,0,1.5-0.5c0.3-0.3,0.4-0.7,0.5-1.1l2-8.5H123.1z"/>
	<path class="st1" d="M218.2,91.4l-1.3,6.3l-1.3-6.3h-0.7l1.7,7.6l-0.2,0.9c-0.2,0.9-0.8,1.1-1.2,1.1c-0.1,0-0.2,0-0.2,0v0.6
		c0.5,0,1.1,0,1.5-0.5c0.3-0.3,0.4-0.7,0.5-1.1l2-8.5H218.2z"/>
	<path class="st1" d="M114.7,99v2.1H114v-2.7c0.4-0.3,0.6-0.5,0.8-0.9c0.5-0.9,0.5-2.3,0.5-6.1h2.8v7h0.7v2.7h-0.6V99H114.7z
		 M114.8,98.4h2.7V92H116c0,3.1-0.2,4.8-0.7,5.8C115.2,98.1,115,98.3,114.8,98.4"/>
	<path class="st1" d="M146.2,99v2.1h-0.6v-2.7c0.4-0.3,0.6-0.5,0.8-0.9c0.5-0.9,0.6-2.3,0.6-6.1h2.8v7h0.7v2.7h-0.6V99H146.2z
		 M146.4,98.4h2.7V92h-1.5c0,3.1-0.2,4.8-0.7,5.8C146.8,98.1,146.5,98.3,146.4,98.4"/>
	<path class="st1" d="M123.6,64.5c-0.1,0.7-0.3,1.2-0.6,1.5c-0.4,0.4-1,0.5-1.7,0.5c-0.9,0-1.5-0.3-1.9-0.9
		c-0.4-0.6-0.6-1.6-0.6-2.9v-0.9c0-1.3,0.2-2.2,0.6-2.8c0.4-0.6,1-0.9,1.9-0.9c0.8,0,1.3,0.2,1.7,0.5c0.3,0.3,0.5,0.6,0.6,1.2h2.5
		c-0.2-1.1-0.7-2-1.4-2.6c-0.9-0.7-2-1.1-3.4-1.1c-1,0-1.9,0.2-2.7,0.7c-0.8,0.5-1.3,1.2-1.8,2c-0.4,0.9-0.6,1.9-0.6,3.1v0.7
		c0,1.8,0.4,3.3,1.3,4.3c0.9,1,2.1,1.6,3.7,1.6c1.4,0,2.6-0.4,3.4-1.1c0.8-0.7,1.3-1.7,1.4-2.9H123.6z"/>
	<path class="st1" d="M135.6,64.5c-0.1,0.7-0.3,1.2-0.6,1.5c-0.4,0.4-1,0.5-1.7,0.5c-0.9,0-1.5-0.3-1.9-0.9
		c-0.4-0.6-0.6-1.6-0.6-2.9v-0.9c0-1.3,0.2-2.2,0.6-2.8c0.4-0.6,1-0.9,1.9-0.9c0.8,0,1.3,0.2,1.7,0.5c0.3,0.3,0.5,0.6,0.6,1.2h2.5
		c-0.2-1.1-0.7-2-1.4-2.6c-0.9-0.7-2-1.1-3.4-1.1c-1,0-1.9,0.2-2.7,0.7c-0.8,0.5-1.3,1.2-1.8,2c-0.4,0.9-0.6,1.9-0.6,3.1v0.7
		c0,1.8,0.4,3.3,1.3,4.3c0.9,1,2.1,1.6,3.7,1.6c1.4,0,2.6-0.4,3.4-1.1c0.8-0.7,1.3-1.7,1.4-2.9H135.6z"/>
	<polygon class="st1" points="103.9,86.5 106.2,86.5 106.4,81.9 104.8,81.9 104.8,71.8 102.3,71.8 102.3,81.9 97.4,81.9 97.4,71.8 
		94.9,71.8 94.9,83.9 103.9,83.9 	"/>
	<path class="st1" d="M179.2,78.7c-0.4-0.5-0.9-0.8-1.5-1.1c0.6-0.3,1.1-0.6,1.4-1.1c0.3-0.5,0.5-1,0.5-1.5c0-1.1-0.4-1.9-1.2-2.5
		c-0.8-0.6-1.9-0.9-3.3-0.9c-0.8,0-1.5,0.1-2.2,0.4c-0.7,0.3-1.2,0.7-1.6,1.2c-0.4,0.5-0.6,1.1-0.6,1.8h2.5c0-0.4,0.2-0.8,0.5-1
		c0.4-0.3,0.8-0.4,1.3-0.4c0.6,0,1.1,0.1,1.4,0.4c0.4,0.3,0.5,0.6,0.5,1.1c0,1.1-0.6,1.6-1.8,1.6H174v1.9h1.2c0.7,0,1.2,0.1,1.5,0.4
		c0.3,0.3,0.5,0.7,0.5,1.4c0,0.5-0.2,0.8-0.6,1.1c-0.4,0.3-0.9,0.5-1.6,0.5c-0.6,0-1.1-0.1-1.4-0.4c-0.4-0.3-0.6-0.7-0.6-1.1h-2.5
		c0,0.7,0.2,1.3,0.5,1.8c0.4,0.5,0.9,0.9,1.6,1.2c0.7,0.3,1.5,0.5,2.4,0.5c1.4,0,2.5-0.3,3.4-1c0.9-0.6,1.3-1.5,1.3-2.6
		C179.7,79.8,179.6,79.2,179.2,78.7"/>
	<polygon class="st1" points="203.3,86.5 205.5,86.5 205.7,81.9 204.1,81.9 204.1,71.8 201.6,71.8 201.6,81.9 196.8,81.9 
		196.8,71.8 194.3,71.8 194.3,83.9 203.3,83.9 	"/>
	<path class="st1" d="M189.7,83.9h2.6l-4.5-12.1h-2.3L181,83.9h2.6l1-2.9h4.1L189.7,83.9z M185.3,79l1.4-4.1l1.4,4.1H185.3z"/>
	<path class="st1" d="M160.1,68.4h2.6l-4.5-12.1h-2.3l-4.5,12.1h2.6l1-2.9h4.1L160.1,68.4z M155.7,63.5l1.4-4.1l1.4,4.1H155.7z"/>
	<path class="st1" d="M104.4,96.8v0.1c0,0.7-0.1,1.5-1.1,1.5c-1,0-1.1-0.9-1.1-1.3v-1.9h2.8v-2c0-1.3-0.6-2-1.8-2
		c-1.3,0-1.7,0.9-1.7,1.8v4.1c0,1.3,0.8,1.8,1.7,1.8c1.3,0,1.8-0.9,1.8-1.7v-0.5H104.4z M102.2,93.3c0-0.8,0.3-1.3,1.1-1.3
		c0.6,0,1.1,0.4,1.1,1.3v1.5h-2.2V93.3z"/>
	<path class="st1" d="M228.3,96.8v0.4c0,0.5-0.2,1.2-1.1,1.2c-1.1,0-1.2-1-1.2-1.7v-3.4c0-0.5,0.1-1.4,1.1-1.4
		c0.9,0,1.1,0.8,1.1,1.5v0.4h0.6v-0.5c0-1.2-0.5-2-1.7-2c-1,0-1.8,0.5-1.8,1.9v3.8c0,0.9,0.4,1.9,1.7,1.9c1.4,0,1.9-0.8,1.9-2v-0.3
		H228.3z"/>
	<polygon class="st1" points="99.8,17.5 99.8,15.6 92.1,15.6 92.1,33.3 99.8,33.3 99.8,31.4 94.1,31.4 94.1,17.5 	"/>
	<path class="st1" d="M115.7,23c-0.4-3.9-2.5-6.8-6.3-7.2c-0.7-0.1-1.5-0.1-2.4-0.2v2c0.8,0,1.6,0.1,2.2,0.2
		c3.5,0.4,4.3,3.6,4.5,5.5c0.1,0.6,0.1,2,0,2.6c-0.2,1.9-1,5.1-4.5,5.5c-0.6,0.1-1.4,0.1-2.2,0.2v2c0.9,0,1.7-0.1,2.4-0.2
		c3.8-0.4,5.9-3.3,6.3-7.2c0.1-0.8,0.1-0.5,0.1-1.2C115.8,24,115.8,23.8,115.7,23"/>
</g>
</svg>
